control3min_grf.mot
version=1
nRows=10
nColumns 19
inDegrees=yes
endheader
time	1_ground_force_vx	1_ground_force_vy	1_ground_force_vz	1_ground_force_px	1_ground_force_py	1_ground_force_pz	1_ground_torque_x	1_ground_torque_y	1_ground_torque_z	2_ground_force_vx	2_ground_force_vy	2_ground_force_vz	2_ground_force_px	2_ground_force_py	2_ground_force_pz	2_ground_torque_x	2_ground_torque_y	2_ground_torque_z
            2.502500	          -16.497731	          581.275033	          -63.225852	           -0.264370	            0.006080	           -0.373221	           -0.064868	            2.285536	           -0.248600	           -1.902204	          546.539542	           57.185166	           -0.251029	            0.005563	           -0.693613	            0.002152	           -0.618227	           -0.064686
            2.503000	          -16.541848	          579.289773	          -62.683969	           -0.264086	            0.006079	           -0.372972	           -0.066059	            2.313351	           -0.250324	           -2.030832	          543.224715	           57.079542	           -0.250754	            0.005565	           -0.693865	            0.002457	           -0.657258	           -0.069062
            2.503500	          -16.540803	          577.305701	          -62.417329	           -0.263957	            0.006078	           -0.372774	           -0.067217	            2.346016	           -0.253647	           -2.392586	          539.542434	           56.503423	           -0.250635	            0.005563	           -0.693362	            0.002942	           -0.663336	           -0.069468
            2.504000	          -16.447206	          573.698243	          -61.928597	           -0.263700	            0.006078	           -0.372852	           -0.065022	            2.268044	           -0.244827	           -2.665168	          537.148411	           56.213432	           -0.250262	            0.005565	           -0.693366	            0.003251	           -0.655217	           -0.068569
            2.504500	          -16.308254	          570.271876	          -61.622644	           -0.263642	            0.006079	           -0.373108	           -0.064820	            2.266633	           -0.244929	           -3.030265	          534.387062	           55.593671	           -0.250365	            0.005565	           -0.693660	            0.003442	           -0.606970	           -0.063145
            2.505000	          -16.627980	          567.566558	          -61.358299	           -0.263533	            0.006079	           -0.373085	           -0.063233	            2.158330	           -0.233332	           -3.486822	          531.070883	           55.535115	           -0.249916	            0.005567	           -0.693669	            0.003763	           -0.573195	           -0.059940
            2.505500	          -16.259293	          565.040414	          -60.773908	           -0.263371	            0.006078	           -0.372903	           -0.062890	            2.185555	           -0.235071	           -3.522558	          527.941645	           55.101612	           -0.249703	            0.005568	           -0.693587	            0.003717	           -0.557151	           -0.058150
            2.506000	          -16.350113	          562.155556	          -60.648476	           -0.263203	            0.006078	           -0.372863	           -0.062573	            2.151411	           -0.232106	           -3.754917	          527.389275	           54.865100	           -0.249407	            0.005570	           -0.694116	            0.003734	           -0.524434	           -0.054558
            2.506500	          -16.440314	          559.629988	          -60.246371	           -0.263072	            0.006079	           -0.372963	           -0.063864	            2.173933	           -0.234032	           -3.880968	          523.338433	           54.569135	           -0.249243	            0.005570	           -0.693790	            0.004200	           -0.566317	           -0.059051
            2.507000	          -16.025637	          556.923361	          -59.617006	           -0.262713	            0.006079	           -0.372947	           -0.062774	            2.181522	           -0.233525	           -3.869937	          520.210156	           53.947900	           -0.249203	            0.005570	           -0.693742	            0.004120	           -0.553795	           -0.057431
